<?xml version="1.0" encoding="utf-8"?>
<!-- Generator: Adobe Illustrator 25.0.1, SVG Export Plug-In . SVG Version: 6.00 Build 0)  -->
<svg version="1.1" id="Layer_1" xmlns="http://www.w3.org/2000/svg" xmlns:xlink="http://www.w3.org/1999/xlink" x="0px" y="0px"
	 viewBox="0 0 84.2 43.2" style="enable-background:new 0 0 84.2 43.2;" xml:space="preserve">
<style type="text/css">
	.st0{fill:#005844;}
</style>
<path class="st0" d="M82.2,13.2H66.6v-7c0-1.1-0.9-2-2-2h-45c-1.1,0-2,0.9-2,2v6.9H2c-1.1,0-2,0.9-2,2v26c0,1.1,0.9,2,2,2h80.2
	c1.1,0,2-0.9,2-2v-26C84.1,14,83.3,13.2,82.2,13.2z M66.6,28.2h1.8v4.3h-1.8V28.2z M20.6,13.2h43v27h-43V13.2z M17.6,32.4h-1.8v-4.2
	h1.8L17.6,32.4z M3,20.1h14.6v6.1h-1.8v-2.9h-2v2.9H9.7v2h4.1v4.3H9.7v2h4.1v2.9h2v-2.9h1.8v5.7H3V20.1z M66.6,40.1v-5.6h1.8v2.9h2
	v-2.9h4.1v-2h-4.1v-4.3h4.1v-2h-4.1v-2.9h-2v2.9h-1.8v-6.1h14.6v20H66.6z"/>
<path class="st0" d="M36,17.6v3.9h-5.9v2H36v6.2h-5.9v2H36v3.9h2v-3.9h8.2v3.9h2v-3.9h5.9v-2h-5.9v-6.2h5.9v-2h-5.9v-3.9h-2v3.9H38
	v-3.9H36z M46.2,23.5v6.2H38v-6.2H46.2z"/>
</svg>
