<?xml version="1.0" encoding="UTF-8"?>
<svg width="22px" height="21px" viewBox="0 0 22 21" version="1.1" xmlns="http://www.w3.org/2000/svg" xmlns:xlink="http://www.w3.org/1999/xlink">
    <title>Artboard</title>
    <g id="Artboard" stroke="none" stroke-width="1" fill="none" fill-rule="evenodd">
        <path d="M20.7543671,8.03703704 L18.2631013,8.03703704 C17.7648482,4.08641975 14.7753292,1 11.1629939,1 C7.55065847,1 4.56113953,4.08641975 4.06288638,8.03703704 L1.32249402,8.03703704 C1.19793073,8.03703704 1.07336744,8.03703704 0.948804153,8.03703704 C0.201424418,8.28395062 -0.172265449,8.90123457 0.0768611294,9.64197531 L3.56463322,20.1358025 C3.68919651,20.6296296 4.18744967,21 4.81026611,21 L17.266595,21 C17.7648482,21 18.2631013,20.6296296 18.3876646,20.1358025 L21.8754367,9.64197531 C21.8754367,9.51851852 22,9.39506173 22,9.27160494 C22,8.5308642 21.5017468,8.03703704 20.7543671,8.03703704 Z M11.1629939,2.60493827 C13.9033862,2.60493827 16.1455254,4.95061728 16.6437786,8.03703704 L5.68220914,8.03703704 C6.18046229,4.95061728 8.42260149,2.60493827 11.1629939,2.60493827 Z M17.0174684,19.3950617 L5.05939269,19.3950617 L1.82074718,9.64197531 L20.256114,9.64197531 L17.0174684,19.3950617 Z" id="Shape" fill="#FFFFFF" fill-rule="nonzero"></path>
    </g>
</svg>