<?xml version="1.0" encoding="UTF-8"?>
<svg width="16px" height="15px" viewBox="0 0 16 15" version="1.1" xmlns="http://www.w3.org/2000/svg" xmlns:xlink="http://www.w3.org/1999/xlink">
    <title>Artboard</title>
    <g id="Artboard" stroke="none" stroke-width="1" fill="none" fill-rule="evenodd">
        <path d="M14.8245479,5.74074074 L13.0450724,5.74074074 C12.6891773,2.91887125 10.5538066,0.714285714 7.97356704,0.714285714 C5.39332748,0.714285714 3.25795681,2.91887125 2.9020617,5.74074074 L0.944638586,5.74074074 C0.855664808,5.74074074 0.76669103,5.74074074 0.677717252,5.74074074 C0.143874585,5.91710758 -0.123046749,6.35802469 0.0549008067,6.88712522 L2.54616659,14.382716 C2.63514037,14.7354497 2.99103548,15 3.43590437,15 L12.3332822,15 C12.6891773,15 13.0450724,14.7354497 13.1340462,14.382716 L15.6253119,6.88712522 C15.6253119,6.7989418 15.7142857,6.71075838 15.7142857,6.62257496 C15.7142857,6.09347443 15.3583906,5.74074074 14.8245479,5.74074074 Z M7.97356704,1.86067019 C9.93099015,1.86067019 11.5325182,3.5361552 11.8884133,5.74074074 L4.05872081,5.74074074 C4.41461592,3.5361552 6.01614392,1.86067019 7.97356704,1.86067019 Z M12.1553346,13.8536155 L3.61385192,13.8536155 L1.3005337,6.88712522 L14.4686528,6.88712522 L12.1553346,13.8536155 Z" id="Shape" fill="#FFFFFF" fill-rule="nonzero"></path>
    </g>
</svg>