<?xml version="1.0" encoding="utf-8"?>
<!-- Generator: Adobe Illustrator 25.0.1, SVG Export Plug-In . SVG Version: 6.00 Build 0)  -->
<svg version="1.1" id="Layer_1" xmlns="http://www.w3.org/2000/svg" xmlns:xlink="http://www.w3.org/1999/xlink" x="0px" y="0px"
	 viewBox="0 0 18 17" style="enable-background:new 0 0 18 17;" xml:space="preserve">
<style type="text/css">
	.st0{fill:#000333;}
</style>
<desc>Created with Sketch.</desc>
<path class="st0" d="M16.8,6.1h-2C14.4,2.9,12,0.4,9.1,0.4c-2.9,0-5.3,2.5-5.7,5.7H1.2c-0.1,0-0.2,0-0.3,0C0.3,6.3,0,6.8,0.2,7.4
	L3,15.9c0.1,0.4,0.5,0.7,1,0.7H14c0.4,0,0.8-0.3,0.9-0.7l2.8-8.5c0-0.1,0.1-0.2,0.1-0.3C17.8,6.5,17.4,6.1,16.8,6.1z M9.1,1.7
	c2.2,0,4,1.9,4.4,4.4H4.7C5.1,3.6,6.9,1.7,9.1,1.7z M13.8,15.3H4.2L1.6,7.4h14.8L13.8,15.3z"/>
</svg>
