<?xml version="1.0" encoding="utf-8"?>
<!-- Generator: Adobe Illustrator 25.0.1, SVG Export Plug-In . SVG Version: 6.00 Build 0)  -->
<svg version="1.1" id="Layer_1" xmlns="http://www.w3.org/2000/svg" xmlns:xlink="http://www.w3.org/1999/xlink" x="0px" y="0px"
	 viewBox="0 0 24 24" style="enable-background:new 0 0 24 24;" xml:space="preserve">
<style type="text/css">
	.st0{clip-path:url(#SVGID_2_);}
	.st1{fill-rule:evenodd;clip-rule:evenodd;}
</style>
<g>
	<defs>
		<rect id="SVGID_1_" width="24" height="24"/>
	</defs>
	<clipPath id="SVGID_2_">
		<use xlink:href="#SVGID_1_"  style="overflow:visible;"/>
	</clipPath>
	<g class="st0">
		<path class="st1" d="M1,0C0.4,0,0,0.4,0,1c0,0.6,0.4,1,1,1h3.2L5,6.2c0,0,0,0.1,0,0.1l1.7,8.3l0,0c0.1,0.7,0.5,1.3,1.1,1.8
			C8.3,16.8,9,17,9.7,17h9.7c0.7,0,1.4-0.2,1.9-0.7c0.5-0.4,0.9-1.1,1.1-1.8h0l0,0L24,6.2c0.1-0.3,0-0.6-0.2-0.8
			C23.6,5.1,23.3,5,23,5H6.8L6,0.8C5.9,0.3,5.5,0,5,0H1z M8.7,14.2L7.2,7h14.6l-1.4,7.2c0,0.2-0.2,0.4-0.4,0.6
			c-0.2,0.1-0.4,0.2-0.6,0.2l0,0H9.7l0,0c-0.2,0-0.5-0.1-0.6-0.2C8.8,14.6,8.7,14.4,8.7,14.2L8.7,14.2z M7,21c0-1.1,0.9-2,2-2
			c1.1,0,2,0.9,2,2s-0.9,2-2,2C7.9,23,7,22.1,7,21z M18,21c0-1.1,0.9-2,2-2s2,0.9,2,2s-0.9,2-2,2S18,22.1,18,21z"/>
	</g>
</g>
</svg>
