<?xml version="1.0" encoding="utf-8"?>
<!-- Generator: Adobe Illustrator 24.2.3, SVG Export Plug-In . SVG Version: 6.00 Build 0)  -->
<svg version="1.1" id="Layer_1" xmlns="http://www.w3.org/2000/svg" xmlns:xlink="http://www.w3.org/1999/xlink" x="0px" y="0px"
	 viewBox="0 0 47.7 33.5" style="enable-background:new 0 0 47.7 33.5;" xml:space="preserve">
<style type="text/css">
	.st0{fill:#54585A;}
</style>
<g>
	<path class="st0" d="M46.4,1.5c-0.8-0.1-1.6,0.5-1.7,1.3l-4.4,18.7H15.8L9.3,1C9.1,0.4,8.5,0,7.9,0H1.5C0.7,0,0,0.7,0,1.5
		S0.7,3,1.5,3h5.3l6.4,20.1l0.2,0.4c0.2,0.6,0.8,1,1.4,1h26.7c0.7,0,1.3-0.4,1.5-1.1l4.6-19.9c0-0.1,0.1-0.2,0.1-0.3
		C47.8,2.4,47.2,1.6,46.4,1.5z"/>
	<circle class="st0" cx="36.8" cy="30.5" r="3"/>
	<circle class="st0" cx="20.7" cy="30.5" r="3"/>
</g>
</svg>
