<?xml version="1.0" encoding="UTF-8"?>
<svg width="21px" height="22px" viewBox="0 0 21 22" version="1.1" xmlns="http://www.w3.org/2000/svg" xmlns:xlink="http://www.w3.org/1999/xlink">
    <title>Group 3</title>
    <defs>
        <polygon id="path-1" points="0 0 20.5588497 0 20.5588497 21.9779198 0 21.9779198"></polygon>
    </defs>
    <g id="Page-1" stroke="none" stroke-width="1" fill="none" fill-rule="evenodd">
        <g id="helsemin_v2-other-lang" transform="translate(-1374.000000, -123.000000)">
            <g id="Group-3" transform="translate(1374.000000, 123.000000)">
                <mask id="mask-2" fill="white">
                    <use xlink:href="#path-1"></use>
                </mask>
                <g id="Clip-2"></g>
                <path d="M14.9888367,6.68869658 C14.9864476,7.951241 14.4879396,9.1341795 13.5851128,10.0196169 C12.6772995,10.9098902 11.4396116,11.4077216 10.1895706,11.3859221 C8.9688713,11.3644733 7.81429727,10.8640861 6.93855695,9.97691982 C6.05863212,9.08554396 5.57375513,7.91571025 5.57330379,6.68295854 C5.57285308,5.42996082 6.06351822,4.24990387 6.95491913,3.36023189 C7.84606948,2.47078542 9.02780524,1.98107244 10.2829579,1.98107244 L10.284762,1.98107244 C11.5419191,1.98154852 12.7246321,2.47331617 13.6150558,3.36576948 C14.5033246,4.25606788 14.9912084,5.43617494 14.9888367,6.68869658 M20.5536503,20.8695257 C20.5118052,20.4390223 20.4685068,19.9939107 20.3670011,19.558421 C19.9427369,17.7387353 19.1739146,16.1781636 18.0819328,14.9200793 C17.064295,13.7476396 15.742992,12.8114118 14.1503975,12.1335964 C15.1324043,11.4289198 15.8541697,10.561323 16.3486185,9.49412255 C16.9199169,8.2610451 17.0981469,6.94903827 16.8782722,5.59455991 C16.6623565,4.26431162 16.0742449,3.08257585 15.1303747,2.08222733 C14.4857096,1.39899954 13.7226754,0.870774032 12.8624704,0.512184055 C12.0339624,0.166824146 11.1552153,-0.00536719818 10.251762,-6.85047055e-06 C9.34297153,0.00570797267 8.46094191,0.190728474 7.63015376,0.550020046 C6.76704214,0.923318451 6.00320615,1.46692893 5.35986902,2.16579226 C4.03408087,3.60601549 3.44987813,5.32226606 3.62347267,7.26691071 C3.80220387,9.26903599 4.73825626,10.9026738 6.40795103,12.129913 C5.30519476,12.5775303 4.31494419,13.1919768 3.45939977,13.9600975 C2.43627449,14.8786601 1.626459,15.9267421 1.0524795,17.0752023 C0.479001139,18.2227353 0.126399772,19.4995872 0.0044476082,20.8703526 C-0.0206845103,21.1527444 0.0611264237,21.4216806 0.234746014,21.6276487 C0.404757403,21.8293071 0.647734624,21.9525121 0.918900911,21.9745622 C0.946563781,21.9768173 0.974026196,21.9779198 1.00123804,21.9779198 C1.51793736,21.9779198 1.94485763,21.5789882 1.99011048,21.0366806 C2.14761845,19.1498674 2.85319704,17.5104665 4.08725171,16.1640565 C5.00105353,15.1670155 6.04144305,14.430241 7.17945444,13.9742046 C8.31480979,13.5192205 9.57705353,13.3317194 10.9311811,13.4169631 C12.1575683,13.4941134 13.3147733,13.8478674 14.3706982,14.4683777 C15.5444408,15.1581203 16.4886868,16.0210314 17.1772517,17.0330565 C17.8682973,18.04879 18.3224043,19.2451339 18.5269692,20.5888378 C18.5467642,20.7189335 18.557664,20.8513093 18.5691651,20.9914528 L18.5713702,21.018364 C18.6197802,21.6062 19.0773952,22.0169335 19.6358394,21.974913 C19.9092859,21.9540656 20.1545683,21.8299585 20.3265091,21.6253936 C20.500279,21.4186487 20.5809374,21.1502137 20.5536503,20.8695257" id="Fill-1" fill="#333333" mask="url(#mask-2)"></path>
            </g>
        </g>
    </g>
</svg>