<?xml version="1.0" encoding="UTF-8"?>
<svg width="24px" height="22px" viewBox="0 0 24 22" version="1.1" xmlns="http://www.w3.org/2000/svg" xmlns:xlink="http://www.w3.org/1999/xlink">
    <title>Group 6</title>
    <g id="Page-1" stroke="none" stroke-width="1" fill="none" fill-rule="evenodd">
        <g id="helsemin_v2-other-lang" transform="translate(-1415.000000, -124.000000)" fill="#333333">
            <g id="Group-6" transform="translate(1415.000000, 124.000000)">
                <path d="M5.99977512,2.35474601 C5.35370265,2.52085573 4.76734904,2.80209156 4.25700891,3.19058617 C2.90038551,4.2234174 2.18829472,5.62643281 2.14047483,7.36068775 C2.14047483,7.36138769 2.14044683,7.36208763 2.14041883,7.36278757 C2.13238352,7.77950375 2.19092649,8.21878599 2.31937945,8.70574814 C2.4304459,9.12677595 2.78738722,9.3926411 3.1995398,9.3926411 C3.28059283,9.3926411 3.36380168,9.38236598 3.44765447,9.36094782 C3.67099128,9.30394472 3.86092695,9.15942114 3.98243651,8.9540028 C4.10685781,8.74371287 4.14213478,8.4990699 4.08182797,8.265178 C3.96474203,7.81119702 3.93573652,7.3588679 3.99565137,6.92076156 C4.0918511,6.21712604 4.38694574,5.5938716 4.87275998,5.06838477 C5.29434775,4.61230397 5.83671713,4.28772787 6.48477743,4.10367169 C6.95883269,3.96905926 7.24152439,3.47868141 7.11494727,3.01050565 C6.97907495,2.50811683 6.49967215,2.22620906 5.99977512,2.35474601" id="Fill-4"></path>
                <path d="M21.5434959,9.49521308 C21.2727592,10.1558443 20.879841,10.7468175 20.3756603,11.2516421 C18.6750585,12.9543998 16.9442472,14.6840071 15.2704111,16.3566673 C14.6726905,16.953996 14.0749419,17.5512967 13.4772772,18.1486813 C12.9469188,18.6788157 12.4164764,19.2088382 11.885838,19.7387206 C11.8033011,19.6549239 11.7212682,19.571603 11.6395992,19.4886461 C11.3332775,19.1774249 11.0439224,18.8834782 10.746112,18.5851918 C9.95615986,17.7940918 9.16533984,17.0037757 8.3745478,16.2134876 C7.93789733,15.7771731 7.50130286,15.3408306 7.06482038,14.9043482 C6.72725339,14.5667812 6.38949042,14.2294102 6.05172745,13.8920112 C5.18332609,13.0246457 4.28535927,12.1277148 3.40584287,11.2422349 C2.51585536,10.3462839 1.9953521,9.26090122 1.85877984,8.0162122 C1.67909128,6.37877294 2.13953971,4.92712571 3.22733021,3.70167104 C4.16939324,2.64033826 5.3752216,2.02707897 6.81130217,1.87891571 C6.99871806,1.85956937 7.18537801,1.8499102 7.37117004,1.8499102 C8.19768701,1.8499102 9.00656548,2.04093778 9.78263078,2.42022118 C10.3144731,2.68015084 10.8095825,3.03502034 11.2542683,3.47500252 C11.6107896,3.8278282 12.1751931,3.82416051 12.5390779,3.46665924 C13.2018929,2.8155472 13.9606557,2.35764656 14.794312,2.10566822 C16.1922879,1.68310054 17.5629101,1.78747557 18.8682139,2.41582556 C19.7696804,2.84978826 20.5150603,3.50915959 21.0836075,4.37568511 C21.5146864,5.03262064 21.7929265,5.77615274 21.9105724,6.58553517 C22.0539481,7.57203038 21.9304507,8.55096624 21.5434959,9.49521308 M23.8232,7.35448908 C23.8058695,7.21441712 23.7903588,7.07056548 23.7753801,6.93147344 C23.741895,6.62081214 23.7072899,6.29956775 23.648943,5.98327893 C23.3855976,4.55570963 22.7212987,3.28993843 21.6744967,2.22113029 C20.9758167,1.50777961 20.1518755,0.955331089 19.2255472,0.579071429 C18.0973841,0.120834814 16.9286806,-0.0528622565 15.7518017,0.0626278171 C14.3104576,0.204099658 13.0132731,0.725246865 11.8949372,1.61179067 C11.3549476,1.18804709 10.7752855,0.847372368 10.1708734,0.598641746 C8.69061264,-0.010529895 7.15449667,-0.131255519 5.60538981,0.239824587 C4.3374348,0.543542482 3.20694796,1.16441712 2.24531461,2.08522997 C1.57592015,2.72620688 1.04435784,3.47791427 0.665410408,4.31949394 C0.0559307927,5.67289761 -0.136132699,7.08912789 0.0944554815,8.52887614 C0.34299012,10.0802788 1.02982709,11.4333465 2.13592802,12.5504505 C3.11651573,13.5408654 4.11964152,14.5412754 5.08975813,15.5087042 C5.54012742,15.9578696 5.99049671,16.407007 6.44027806,16.8567324 C6.98670709,17.4031334 7.53302413,17.9496184 8.07931318,18.4961314 C9.1226715,19.5398257 10.1660018,20.583548 11.2102281,21.6264024 C11.4175783,21.8335006 11.6554178,21.9371197 11.8931174,21.9371197 C12.1277372,21.9371197 12.3622171,21.8361324 12.5669635,21.6339618 C13.0164928,21.1900879 13.4698859,20.735771 13.9083562,20.2964047 C14.0952681,20.1091008 14.28218,19.9218249 14.469316,19.734801 L15.295273,18.9093759 C15.7886466,18.4163943 16.2819922,17.9234127 16.7752258,17.4302911 C17.1579529,17.0476479 17.540568,16.6649208 17.9232111,16.2822217 C18.3187611,15.8865597 18.7143391,15.4908978 19.1100291,15.0953477 C19.296969,14.9084358 19.483825,14.7214399 19.6706529,14.534388 C20.1706059,14.033959 20.6875815,13.5165075 21.1981176,13.010087 C21.7305199,12.4820244 22.2022793,11.9969381 22.5843065,11.4072247 C23.3552202,10.217131 23.7726363,8.86700308 23.8250958,7.39432965 C23.8254118,7.3810308 23.8248238,7.36770394 23.8232,7.35448908" id="Fill-1"></path>
            </g>
        </g>
    </g>
</svg>