<svg xmlns="http://www.w3.org/2000/svg" viewBox="0 0 1448.55 695.11"><g id="OBJETCS"><path d="M1162.51,0c18.08,6,37.4,9.68,54,18.46,57.41,30.3,87.12,96,73.91,158.83A148.32,148.32,0,0,1,1160.1,294.86c-77.48,8-151-49-160.74-124.68-10.65-82.7,42.27-155.61,122.19-168.39A56.42,56.42,0,0,0,1128,0Zm-91.28,209.1c13.27-12.59,26.32-15.44,36.33-6.6,15.78,13.92,35.24,17.12,54.37,21.76s35.62,13.56,49,28c4.84,5.2,10.06,9.55,18.61,8-1-11.23-2.73-20.26-14.83-25.51a96.58,96.58,0,0,1-28.27-19.12A53,53,0,0,0,1158.25,201c-5.77-1.12-12.52-2.81-16.47-6.65-11.93-11.6-22.77-24.33-33.8-36.83-.82-.93.06-3.65.56-5.42,3.11-10.91,20.3-16.11,31.4-9.86,13.24,7.45,26.21,15.64,40.14,21.51,11.61,4.89,24.58,7.94,36.69.51,2.18-1.34,2.54-5.6,3.75-8.52a77.47,77.47,0,0,0-9.15.17c-5.06.67-11.06,4-14.92,2.24-9.43-4.22-18-10.49-26.59-16.36-1.73-1.18-2.21-4.2-3.26-6.38,2.14-1,4.32-2,6.4-3.09,3.67-2,10.19-3.78,10.43-6.16,1.12-11.2,2.85-23.22-.06-33.72-3.88-14-18.87-19.84-33.58-16.55-3.84.86-7.67,1.75-11.5,2.62L1135.82,76c2.89-4.84,5-10.49,8.82-14.35C1155,51.32,1166,41.72,1176.84,32c5.14-4.59,10-10.45,4.4-16.14-5.78-5.87-11.64-.27-16.29,4.3-1.35,1.32-2.16,3.18-3.43,4.6-6.34,7.13-12.41,14.54-19.21,21.22-11.45,11.26-22.15,22.6-27.34,38.56-3.56,11-11.27,19-23.88,21.13-2.7.46-5.48,4.33-6.93,7.27-2.46,5-4.05,10.5-5.73,15.87-2.86,9.1-7.91,18.33-7.65,27.38.34,11.64-5,17.8-13.26,23.33-10.3,6.89-20.83,13.44-31,20.56a11.8,11.8,0,0,0-4.42,7.45c-1.2,10.65,12.36,20.84,25.76,20.13,17.11-.91,34.24-1.42,51.35-2.42,3.14-.18,6.2-1.84,9.5-2.89C1100,206.7,1083,217,1071.23,209.1Z" transform="translate(0 0)" fill="#fff"/><path d="M587.84,419.45c6.3-4.91,13.07-9.34,18.79-14.86,7.1-6.87,13.48-14.51,19.85-22.1,1.95-2.32,3.11-5.45,4.15-8.38,10.76-30,23.56-58.73,49.87-78.93,4-3.1,8-6.46,12.38-9,12.24-7,24.39-6.92,32.29-.15,9.54,8.18,14.14,23,6.47,34.8C721,337.2,707.4,351.7,694.49,366.49c-4.1,4.71-9.79,8.24-15.21,11.57-8.47,5.2-10.56,12.47-7.31,21.14s11,13.6,19.42,13a100.17,100.17,0,0,0,31.3-7.18c22.56-9.41,36.95-28.9,53.19-46,11.22-11.82,22.41-23.72,34.32-34.82,6.21-5.78,13.4-11.19,21.12-14.5,11.12-4.78,18.35.79,17.63,12.84-.5,8.53-2.45,17-4,25.46-1.14,6.47-2.61,12.9-3.93,19.35l2.45,1.62c6.17-5.6,12.57-11,18.46-16.86,12.65-12.66,24.69-25.94,37.7-38.21a64.22,64.22,0,0,1,19.23-12.12c8.08-3.34,14.09.1,15.66,8.81a69.19,69.19,0,0,1,0,20.82c-2.16,16.7-5.06,33.3-7.91,51.52,9.71-8.8,17.93-17.33,27.27-24.37a97.46,97.46,0,0,1,23.94-13.16c10.05-3.8,18.1.58,23.19,9.93,5.63,10.32,10.89,20.86,16.72,31.07,6.38,11.17,13.81,12,22.84,2.61,18.36-19,36.51-38.27,54.91-57.27,6.11-6.31,13.21-3.74,19.41-.32,8.08,4.46,12,12,12.92,21.18.93,9.52,1.72,19.08,3.29,28.51,3.21,19.35,16.94,24.92,32.44,12.84,6.7-5.22,12.54-11.73,18-18.32,16.42-19.93,31.67-40.91,49.09-59.91,5.58-6.08,16.27-8.67,25.09-10.27,8.28-1.5,16.93,11.41,14.71,23-3.24,16.83-8.33,33.31-12.79,49.89-2.23,8.25-4.83,16.39-8,27.19,3.58-2.95,5.24-4,6.53-5.41,13.14-14.35,26-28.93,39.4-43.07,9.05-9.57,19.63-17.2,33.76-13.93,5.09,1.17,11.19,4.35,13.83,8.51,5.92,9.33,9.69,20,14.88,29.83,2.83,5.37,6,13.13,10.44,14.31,4.09,1.08,10.22-5.11,15.25-8.41,1.48-1,2.26-3,3.71-5,11.49,29.11-8.69,47.68-29.13,54.33-9.5,3.09-17.53-1.14-23.23-9.31-7.67-11-15.47-21.88-22.86-33.05-4.27-6.45-8.13-6.14-14-1.67-25.82,19.76-44.22,46.47-66.18,69.84-5.73,6.09-17.42,10.36-24.68,6-2.66-1.6-5.05-7-4.49-10.07,3-16.58,6.9-33,10.65-49.46,2.58-11.32,5.44-22.58,8.18-33.87l-3.78-2.46c-3.93,3.47-8,6.83-11.78,10.42-16.94,15.92-32.68,33.37-51,47.5-23.9,18.46-47.09,9.55-56.72-19.05-2.51-7.44-6.75-14.35-10.53-21.32-3.15-5.82-7.6-6.47-12.35-1.77-9.08,9-18.57,17.61-26.92,27.21-18.67,21.44-42.23,21.12-60.08-1.26-5.34-6.7-10.63-13.64-17-19.31s-14-6.7-20.64.08c-16,16.34-31.56,33.06-47.68,49.25-4.81,4.83-10.34,9.71-16.5,12.24-9,3.72-15.06-2.11-12.8-11.85,4-17.07,8.74-33.94,12.87-51a201.49,201.49,0,0,0,3.58-20.74c.38-2.85-.27-5.83-.45-8.74-3.3.55-7.55,0-9.73,1.84a310.15,310.15,0,0,0-26.52,24.72c-17.37,18.68-34.14,37.93-51.23,56.87-4.71,5.23-11.33,6.49-16.37,2.54-2.9-2.26-4.36-9-3.45-13,3.88-17.1,9-33.91,13.43-50.88.93-3.51,1.07-7.22,1.58-10.83l-2.32-1.7c-4.1,3-9.26,5.3-12.14,9.23-16.6,22.66-39.16,38.16-62,53.57-16.29,11-34,14.6-52.93,11.67-12.46-1.93-22.81-8.16-28.27-20.44-2.58-5.81-5.19-11.61-8.16-18.23-2.08,1.9-3.77,3.55-5.56,5.08-10.83,9.27-21.75,18.44-32.51,27.8-9.11,7.92-18,16-27,24.09-1.42,1.27-2.57,3.07-4.21,3.84-5.7,2.69-11.48,6.81-17.4,7.11-8.74.45-7-9.15-8.12-13.93-3.38-14.12-6.06-28.72-6.19-43.15-.05-4.91,7.75-10.75,13.15-14.4,2-1.38,7.45,2.21,13,4.09,1.19-7.45,2.88-16.34,3.94-25.3a227.22,227.22,0,0,0,1.58-23.88c.1-9.53-3.17-11.51-10.65-5.91-10.71,8-21.49,16.23-30.9,25.68-22,22.13-45.38,41.76-74.5,54.52-32.15,14.09-62.1.62-71.2-35.64-.75-3-1.63-6-2.73-10-9.45,8-18,15.57-27,22.75-20.09,16.17-41.56,29.84-67.38,35-28.78,5.75-52.92-10.72-58.3-39.33-7.46-39.72,6.89-72.12,34-99.89,8-8.18,17.34-15.13,26.52-22,10.65-8,26.55-8.28,35-1.32s10.43,23.66,5.37,35.64c-7.07,16.74-19.47,29.05-32.62,40.79-7.39,6.59-15.1,12.83-22.85,19-10.31,8.22-9.89,19.59,1.34,27,8.56,5.62,18,6.3,27.67,3.81,20-5.17,36.05-16.9,51.77-29.88,18.55-15.32,28.19-33.4,29.32-57.9,1.57-34.16,13.21-66.2,27.09-97.21,9.62-21.5,19.34-43,30.63-63.66,6-11,15.11-20.44,23.53-29.95,6.17-7,14.56-7.54,23-4.13,8.14,3.3,10.38,10.72,9.56,18.19-2.12,19.28-3.45,38.91-8.32,57.57-10,38.14-26.26,73.83-47.9,107-9.22,14.11-18.33,28.3-27.46,42.47-.67,1-1.62,2.23-1.61,3.34.09,15.1,2.95,29.45,14.54,40.2,10.5,9.75,22.65,8.84,34.91,3.36,21.42-9.58,41.62-20.83,57.75-38.52,17.86-19.59,36.26-38.7,54.55-57.9a52.51,52.51,0,0,1,10.21-8.63c13.63-8.38,30.59.91,30.64,16.83.08,30.34-6.85,59.4-16.5,88-1.89,5.58-3.15,11.38-4.7,17.08ZM408,309.87c21.61-31.8,40.46-64.78,44-104.23C427.67,236.19,416.86,272.61,408,309.87ZM670,352.7c12.12,1.64,28.26-15.39,27-28C684.84,331,675.74,339.27,670,352.7Zm-411.26.46c13.68-1.46,28.3-18,26.61-29.27C273.53,330.89,263.23,338.33,258.71,353.16Z" transform="translate(0 0)" fill="#fff"/><path d="M158.56,316.08c-25.31,5.56-47.68,10.41-70,15.42-7.44,1.67-15.71,2.27-22,6.07C59.81,341.7,51.27,348.29,50,355c-3.08,16.13-2.67,33-2.91,49.56-.06,4,2.85,8,4.39,12.07,3-1.79,5.82-4,9-5.26,2.77-1.13,6-1.26,9-1.83l1.94,2.77c-8.11,13.52-15.74,27.35-24.59,40.37-2.78,4.07-8.49,6.89-13.44,8.6-8.67,3-15.36-1.21-16.12-10.3-2.15-25.69-3.33-51.48-5.64-77.16-.54-6-3.31-12.21-6.28-17.65C-2,342.86-2.26,331.1,7.68,318.28c5.14-6.62,7.84-16.17,8.89-24.73,5.06-41.17,9.47-82.42,13.48-123.71,1.09-11.3,8.36-17.81,16.18-23.18,6.2-4.27,14.52-5.14,21.7.11,7.61,5.55,9.38,12.84,7.57,22q-9.41,47.4-18,95c-1.94,10.81-2.53,21.86-3.79,33.21,3.39.28,5,.64,6.46.49,13.54-1.38,27.05-3.16,40.61-4.23,17.41-1.36,34.85-2.3,52.29-3.16,8-.38,12.56-4.17,13.6-11.95,4-29.91,10.25-59.64,7.65-90.12-.18-2.15-.68-5,.4-6.43,10.46-14,18.71-29.86,33.89-39.83,6.24-4.09,11.08-3.2,13.18,4.3a37.18,37.18,0,0,1,1.59,13.17q-2.34,24.21-5.66,48.34c-2.95,21.73-5.22,43.63-9.69,65.06-6.66,32-15.21,63.62-22.5,95.51-4.53,19.81-7.78,39.91-12.4,59.7-4.48,19.18-9.65,38.22-15.3,57.09-1.22,4.09-5.18,8.25-9,10.44-5,2.88-12,2.49-13.59-3.92-2-8.07-2-16.8-1.69-25.21.2-6.18,2.36-12.28,3.38-18.45q7.5-45.22,14.86-90.47C153.83,344.72,155.9,332.22,158.56,316.08Z" transform="translate(0 0)" fill="#fff"/><path d="M329.85,625.56c-5.71,19.19-11.51,38.36-17.07,57.6-1.24,4.29-2.3,7.26-8,7.26s-7.48-2.44-8.9-7.43c-7.19-25.45-14.78-50.79-22.33-76.54,8.18-3.14,12.63-1.61,14.71,7.33,3.52,15.21,8,30.2,12.21,45.26a20.69,20.69,0,0,0,5,9.49C311,649.76,316.8,631,322,612.16c1.59-5.81,4.79-8.56,10.08-6.83,3.13,1,6.86,4.16,7.82,7.15,6,18.48,11.2,37.2,18.61,56.27,1-3,2.21-6,3.05-9,4.27-15.37,8.39-30.77,12.67-46.13,2.6-9.34,2.68-9.32,14.37-7.33-7.71,26.62-15.25,53.19-23.36,79.58-.63,2.06-5.29,4.13-7.93,4s-6.22-2.82-7-5.17C344.85,668,340,651.11,335,634.31c-.89-2.95-2-5.85-3-8.77Z" transform="translate(0 0)" fill="#fff"/><path d="M949.29,654v35.7l-11,.53V604.51c13.82.76,27.8.47,41.38,2.64,9.83,1.58,14.41,10.16,15.06,19.89.62,9.34-3.28,16.77-11.54,21.54-2.45,1.41-5.16,2.38-8.45,3.86l22.68,36.87c-8.21,1.52-14.81,2.67-18.94-6.72-3.32-7.56-8.48-14.3-12.08-21.75C962.89,653.6,958.08,650.87,949.29,654Zm.5-12.1c7.48,0,14.49.63,21.31-.18,6.64-.8,10.8-5,11-12.29s-3.53-11.81-10.22-12.91c-7.07-1.16-14.37-.95-22.07-1.37Z" transform="translate(0 0)" fill="#fff"/><path d="M863.19,689.29c-10.45,2.93-16-.13-17.83-9.65-1.59-8-6.3-11.9-14.93-10.33a31,31,0,0,1-9.57,0c-13.34-1.86-23.41.46-26.85,16.09-.55,2.53-3.08,11.16-10.44,9.46a17.37,17.37,0,0,1-2.72-1,3.4,3.4,0,0,1-1.74-4.27h0c.42-1.05.47-1.14.82-1.92,11.62-26.38,23.11-52.82,35-79.08,2.48-5.49,11.19-5.18,13.66.45C840.26,635.54,851.56,662.22,863.19,689.29Zm-42-68.69c-5.68,13.67-10.61,25.53-15.81,38.07h31.19Z" transform="translate(0 0)" fill="#fff"/><path d="M492.62,641V652.1H453.54v26.7h44.24c.24,4.21.41,7.25.6,10.85H441.67V606h54c.13,2.76.28,5.77.49,10.2H453.51V641Z" transform="translate(0 0)" fill="#fff"/><path d="M1063.43,605.68h54c.18,3.32.32,6,.54,10.19h-42.78V640.5H1114v11.63h-38.83V678.8h44.61v10.92h-56.3Z" transform="translate(0 0)" fill="#fff"/><path d="M723.81,614.5l-8,6.36c-19.18-12.2-34.44-11.39-45.32,2.17s-10.16,35.79,1.63,47.57,29,11.14,45.06-2.26l8.74,6.76A41.56,41.56,0,0,1,678.82,688c-17.31-6.37-29.13-23.71-28.91-42.4.23-20.33,11.84-37.08,29.59-42.7C696.89,597.35,714.43,601.86,723.81,614.5Z" transform="translate(0 0)" fill="#fff"/><path d="M1448.55,480.75c-.21,17.62-13.6,30.43-31.44,30.09s-30.37-13.37-30.18-31.33a30.64,30.64,0,0,1,31.41-30.41C1435.74,449.56,1448.76,463.2,1448.55,480.75Zm-30.69-26.39c-14.31,0-25.23,11.07-25.24,25.69s11,26.1,25,26.18c13.86.08,25.13-11.48,25.31-25.93S1432.09,454.4,1417.86,454.36Z" transform="translate(0 0)" fill="#fff"/><path d="M1423.88,482.88l8.74,14.7-2.28,2.06-16.88-18.73c-1.55,7.48-2.63,12.68-3.7,17.88l-3.47-.76V462c8.68,1.82,19.09-4.63,24.92,6.12C1434.43,474.08,1431.8,479.9,1423.88,482.88Zm-11.58-3.54c5.33-1.81,9.38-2.95,13.14-4.72.61-.29.43-4.68-.27-5-3.83-1.53-7.93-2.37-12.87-3.69Z" transform="translate(0 0)" fill="#fff"/></g></svg>