<?xml version="1.0" encoding="UTF-8"?>
<svg width="24px" height="22px" viewBox="0 0 24 22" version="1.1" xmlns="http://www.w3.org/2000/svg" xmlns:xlink="http://www.w3.org/1999/xlink">
    <title>Shape</title>
    <g id="Page-1" stroke="none" stroke-width="1" fill="none" fill-rule="evenodd">
        <g id="helsemin_v2-other-lang" transform="translate(-1465.000000, -123.000000)" fill="#333333" fill-rule="nonzero">
            <path d="M1487.64113,130.740741 L1484.92338,130.740741 C1484.37983,126.395062 1481.11854,123 1477.17781,123 C1473.23708,123 1469.97579,126.395062 1469.43224,130.740741 L1466.44272,130.740741 C1466.30683,130.740741 1466.17095,130.740741 1466.03506,130.740741 C1465.21974,131.012346 1464.81207,131.691358 1465.08385,132.506173 L1468.88869,144.049383 C1469.02458,144.592593 1469.56813,145 1470.24756,145 L1483.83629,145 C1484.37983,145 1484.92338,144.592593 1485.05927,144.049383 L1488.86411,132.506173 C1488.86411,132.37037 1489,132.234568 1489,132.098765 C1489,131.283951 1488.45645,130.740741 1487.64113,130.740741 Z M1477.17781,124.765432 C1480.16733,124.765432 1482.6133,127.345679 1483.15685,130.740741 L1471.19877,130.740741 C1471.74232,127.345679 1474.18829,124.765432 1477.17781,124.765432 Z M1483.56451,143.234568 L1470.51934,143.234568 L1466.98627,132.506173 L1487.09758,132.506173 L1483.56451,143.234568 Z" id="Shape"></path>
        </g>
    </g>
</svg>